# xmcd
#
# Track frame offsets:
#  210
#  15199
#  32257
#  46250
#  59288
#  73330
#  84173
#  99215
#  113066
#  126802
#  141264
#  150756
#  163313
#  176974
#  202281
#  214547
#  227883
#  239651
#  254863
#  269135
#
# Disc length: 3734 seconds
#
# Revision: 0
# Processed by: cddbd v1.4b41PL3 Copyright (c) Steve Scherf et al.
# Submitted via: AltoMP3_Maker 3.0
#
DISCID=1f0e9414
DTITLE=Various Artist - Vol. 1-Greatest In Country Blues
DYEAR=1900
DGENRE=
TTITLE0=Shorty George
TTITLE1=Ain'T No Grave Can Hold My Body Down
TTITLE2=I Be'S Troubled
TTITLE3=How You Want It Done?
TTITLE4=She'S Comin Back Some Cold Rainy Day
TTITLE5=Sic 'Em Dogs On
TTITLE6=California Desert Blues
TTITLE7=Lonesome Day Blues
TTITLE8=Moanin' The Blues
TTITLE9=Midnight Hour Blues
TTITLE10=Jack O'Diamonds
TTITLE11=Dust My Broom
TTITLE12=Rowdy Blues
TTITLE13=Penitentiary Blues (Part 1 and 2)
TTITLE14=Baby How Long
TTITLE15=Mighty Long Time
TTITLE16=River Blues (Part 2)
TTITLE17=Mississippi Jail House Groan
TTITLE18=Bullfrog Blues
TTITLE19=Moanin' Blues
EXTD=
EXTT0=
EXTT1=
EXTT2=
EXTT3=
EXTT4=
EXTT5=
EXTT6=
EXTT7=
EXTT8=
EXTT9=
EXTT10=
EXTT11=
EXTT12=
EXTT13=
EXTT14=
EXTT15=
EXTT16=
EXTT17=
EXTT18=
EXTT19=
PLAYORDER=
